<svg xmlns="http://www.w3.org/2000/svg" viewBox="0 0 200 200">
  <path d="M 38.0,18.0 Q 51.0,27.0 58.0,38.0 M 58.0,38.0 Q 53.6,50.8 42.0,62.0 M 42.0,62.0 Q 56.7,69.8 66.0,80.0 M 66.0,80.0 Q 65.6,92.4 58.0,104.0 M 58.0,104.0 Q 74.2,106.5 88.0,112.0 M 88.0,112.0 Q 87.9,125.4 80.0,138.0 M 80.0,138.0 Q 93.0,147.0 100.0,158.0 M 100.0,158.0 Q 103.0,168.0 100.0,178.0 M 66.0,80.0 Q 80.3,69.3 100.0,62.0 M 100.0,62.0 Q 113.4,68.9 122.0,78.0 M 80.0,138.0 Q 96.6,138.4 112.0,142.0 M 112.0,142.0 Q 122.7,150.2 128.0,160.0 M 168.0,30.0 Q 162.3,41.9 150.0,52.0 M 150.0,52.0 Q 163.7,59.9 172.0,70.0 M 172.0,70.0 Q 163.3,82.2 148.0,92.0 M 148.0,92.0 Q 121.0,105.0 88.0,112.0" fill="none" stroke="#16213E" stroke-width="2.4" stroke-linecap="round" opacity="0.55"/>
  <circle cx="38" cy="18" r="5" fill="#3A4A6B"/><circle cx="122" cy="78" r="5" fill="#3A4A6B"/><circle cx="128" cy="160" r="5" fill="#3A4A6B"/><circle cx="168" cy="30" r="5" fill="#3A4A6B"/><circle cx="58" cy="38" r="6.5" fill="#16213E"/><circle cx="42" cy="62" r="6.5" fill="#16213E"/><circle cx="66" cy="80" r="6.5" fill="#16213E"/><circle cx="58" cy="104" r="6.5" fill="#16213E"/><circle cx="88" cy="112" r="6.5" fill="#16213E"/><circle cx="80" cy="138" r="6.5" fill="#16213E"/><circle cx="100" cy="158" r="6.5" fill="#16213E"/><circle cx="100" cy="62" r="6.5" fill="#16213E"/><circle cx="112" cy="142" r="6.5" fill="#16213E"/><circle cx="150" cy="52" r="6.5" fill="#16213E"/><circle cx="172" cy="70" r="6.5" fill="#16213E"/><circle cx="148" cy="92" r="6.5" fill="#16213E"/><circle cx="100" cy="178" r="12" fill="#E94560"/>
</svg>